<svg xmlns="http://www.w3.org/2000/svg" xmlns:xlink="http://www.w3.org/1999/xlink" viewBox="0 0 203.1 187.49"><defs><style>.cls-1,.cls-2{fill:none;}.cls-2{stroke:#fff;stroke-linecap:round;stroke-miterlimit:10;stroke-width:5.55px;}.cls-3{fill:url(#linear-gradient);}.cls-4{opacity:0.2;}.cls-5{fill:url(#Unnamed_Pattern);}.cls-6{fill:url(#linear-gradient-2);}.cls-7{fill:url(#linear-gradient-3);}.cls-8{fill:url(#linear-gradient-4);}.cls-9{fill:url(#linear-gradient-5);}</style><linearGradient id="linear-gradient" x1="154.3" y1="154.21" x2="14.86" y2="14.77" gradientUnits="userSpaceOnUse"><stop offset="0.39" stop-color="#7289da"/><stop offset="1" stop-color="#0ce8c2"/></linearGradient><pattern id="Unnamed_Pattern" data-name="Unnamed Pattern" width="176.53" height="176.53" patternTransform="translate(-21.77 -151.48) rotate(-45) scale(0.07)" patternUnits="userSpaceOnUse" viewBox="0 0 176.53 176.53"><rect class="cls-1" width="176.53" height="176.53"/><line class="cls-2" x1="-56.2" x2="198.82"/><line class="cls-2" x1="-56.2" y1="35.31" x2="198.82" y2="35.31"/><line class="cls-2" x1="-56.2" y1="70.61" x2="198.82" y2="70.61"/><line class="cls-2" x1="-56.2" y1="105.92" x2="198.82" y2="105.92"/><line class="cls-2" x1="-56.2" y1="141.23" x2="198.82" y2="141.23"/><line class="cls-2" x1="-56.2" y1="176.53" x2="198.82" y2="176.53"/></pattern><linearGradient id="linear-gradient-2" x1="3.42" y1="119.16" x2="198.7" y2="46.51" gradientUnits="userSpaceOnUse"><stop offset="0.01" stop-color="#fff"/><stop offset="1" stop-color="#7289da"/></linearGradient><linearGradient id="linear-gradient-3" x1="-974.2" y1="248.62" x2="-912.65" y2="200.29" gradientTransform="matrix(-0.99, 0.13, 0.13, 0.99, -805.32, 51.8)" gradientUnits="userSpaceOnUse"><stop offset="0.53" stop-color="#7289da"/><stop offset="1" stop-color="#0cdac2"/></linearGradient><linearGradient id="linear-gradient-4" x1="110.64" y1="194.82" x2="143.79" y2="173.9" gradientUnits="userSpaceOnUse"><stop offset="0.01" stop-color="#6ebad4"/><stop offset="1" stop-color="#7289da"/></linearGradient><linearGradient id="linear-gradient-5" x1="104.57" y1="46.54" x2="141.07" y2="-16.68" gradientUnits="userSpaceOnUse"><stop offset="0" stop-color="#7289da"/><stop offset="0.56" stop-color="#0cdac2"/></linearGradient></defs><g id="Layer_2" data-name="Layer 2"><g id="OBJECTS"><path class="cls-3" d="M176.36,132c-12,13.08-31,26.14-52.31,35.45C80.23,186.66,26.65,190,3.94,145.29c-12.55-24.72,8.28-37.23,15-59S4.48,44.49,12.45,21.79A32.52,32.52,0,0,1,23.76,6.36,32,32,0,0,1,48,.41c7.28,1.17,14.15,4.05,20.93,6.94A333.05,333.05,0,0,0,102.3,20c19.93,6.07,39.78,4.77,59.79,9.25,10.73,2.41,21.22,7.18,28.68,15.26C216.16,71.93,197.82,108.67,176.36,132Z"/><g class="cls-4"><path class="cls-5" d="M165.12,137.38c-9.86,10.73-24.41,21.45-41.07,30.09C80.23,186.66,26.65,190,3.94,145.29c-12.55-24.72,8.28-37.23,15-59S4.48,44.49,12.45,21.79A32.52,32.52,0,0,1,23.76,6.36a32,32,0,0,1,13-.59C44,6.94,50.92,9.83,57.7,12.71A335.43,335.43,0,0,0,91.05,25.33c19.93,6.06,39.79,4.77,59.79,9.25,10.73,2.4,21.22,7.17,28.69,15.25C204.91,77.3,186.58,114,165.12,137.38Z"/></g><path class="cls-6" d="M156.28,15c8.54.83,16,3.26,22,7.22C192,31.1,198.78,44.52,198.58,62.06c-.16,14-5,30.38-13.51,46.14-10,18.47-28.84,38.26-50.37,53-24.47,16.7-49.48,24.79-70.43,22.76-15.79-1.52-29.31-8.63-40.19-21.13-11.59-13.33-8-24.93-3.95-38.35,2-6.69,4.16-13.61,4.56-21.26C25.31,91.49,19.31,82,13.5,72.8,7.38,63.12,1.6,54,2.67,42.3A30.5,30.5,0,0,1,30.28,14.56a59.67,59.67,0,0,1,10.93.17c3.65.35,7.35.93,10.62,1.44,7.52,1.18,16.38,2.5,25.13,3.35,3.68.35,7.11.61,10.49.77,11.85.59,23.21-1.12,34.21-2.77,8.49-1.28,17.28-2.6,26.16-2.83a69.26,69.26,0,0,1,8.46.28Zm.18-1.82a72.11,72.11,0,0,0-8.69-.3c-20.49.54-39.43,6.64-60.23,5.61-3.48-.17-6.94-.44-10.4-.77-8.31-.8-16.6-2-25-3.33C48.55,13.8,45,13.24,41.38,12.9a61.4,61.4,0,0,0-11.26-.17A32.26,32.26,0,0,0,.84,42.13c-2.2,24,23.23,38.16,22,60.94S4.5,143.07,22.7,164c11.91,13.7,26.2,20.3,41.39,21.76,47.19,4.55,103-40.53,122.6-76.66,15.11-27.88,23.94-68-7.37-88.42a50.39,50.39,0,0,0-22.86-7.51Z"/><path class="cls-7" d="M136.07,154.86a20.36,20.36,0,0,0,10.3,14.88c7.09,4,16.88,3.69,24.07.14,6.47-3.2,11.47-9.53,12.37-16.69,2.3-18.23-19-25.44-33.28-20.31A21.14,21.14,0,0,0,136.07,154.86Z"/><path class="cls-8" d="M126.24,180.45c.6,5.2,6.76,8.16,11.53,6.65,8.43-2.65,8.54-15.55-1.13-16.11C131.36,170.68,125.57,174.71,126.24,180.45Z"/><path class="cls-9" d="M92,32.85a18.43,18.43,0,0,0,15.66,10.78c9.33.45,17.3-6.13,25.91-9.75,3.65-1.53,7.71-2.69,10.25-5.72,3.26-3.88,2.9-10,0-14.13C137.34,4.84,121,4.41,110.92,6.21,98.21,8.48,85.73,18.64,92,32.85Z"/></g></g></svg>