<svg xmlns="http://www.w3.org/2000/svg" xmlns:xlink="http://www.w3.org/1999/xlink" viewBox="0 0 98.52 75.56"><defs><style>.cls-1{fill:url(#linear-gradient);}.cls-2{fill:url(#linear-gradient-2);}.cls-3{fill:url(#linear-gradient-3);}</style><linearGradient id="linear-gradient" x1="-414.63" y1="116.26" x2="-353.09" y2="67.93" gradientTransform="matrix(-0.84, 0.11, 0.1, 0.74, -312.84, 34.37)" gradientUnits="userSpaceOnUse"><stop offset="0" stop-color="#7289da"/><stop offset="0.78" stop-color="#0cdac2"/></linearGradient><linearGradient id="linear-gradient-2" x1="52.22" y1="33.18" x2="86.01" y2="-25.35" gradientUnits="userSpaceOnUse"><stop offset="0" stop-color="#7289da"/><stop offset="0.56" stop-color="#0cdac2"/></linearGradient><linearGradient id="linear-gradient-3" x1="59.93" y1="73.64" x2="93.08" y2="52.73" gradientUnits="userSpaceOnUse"><stop offset="0.01" stop-color="#6ebad4"/><stop offset="1" stop-color="#0cdac2"/></linearGradient></defs><g id="Layer_2" data-name="Layer 2"><g id="OBJECTS"><path class="cls-1" d="M.1,62.57c.62,4.69,3.92,8.72,8.55,11,6,2.9,14.28,2.53,20.42-.22,5.54-2.47,9.87-7.27,10.73-12.63C42,47,24,42,11.83,46,4.34,48.45-.8,55.7.1,62.57Z"/><path class="cls-2" d="M32.41,18.48c3.27,4.11,11,7,19.12,7.25,11.39.3,21.13-4.13,31.64-6.56,4.46-1,9.42-1.81,12.53-3.85,4-2.6,3.53-6.71,0-9.5C87.83-.35,67.9-.64,55.57.57,40,2.09,24.8,8.93,32.41,18.48Z"/><path class="cls-3" d="M75.52,59.27c.61,5.2,6.76,8.16,11.53,6.66,8.43-2.66,8.55-15.56-1.12-16.12C80.65,49.51,74.85,53.53,75.52,59.27Z"/></g></g></svg>