<svg xmlns="http://www.w3.org/2000/svg" xmlns:xlink="http://www.w3.org/1999/xlink" viewBox="0 0 218.15 178.74"><defs><style>.cls-1,.cls-2{fill:none;}.cls-2{stroke:#fff;stroke-linecap:round;stroke-miterlimit:10;stroke-width:5.55px;}.cls-3{fill:url(#linear-gradient);}.cls-4{opacity:0.2;}.cls-5{fill:url(#Unnamed_Pattern);}.cls-6,.cls-9{fill:#fff;}.cls-7{opacity:0.68;fill:url(#linear-gradient-2);}.cls-8{fill:url(#linear-gradient-3);}.cls-10,.cls-9{opacity:0.55;}.cls-10{fill:#0cdac2;}</style><linearGradient id="linear-gradient" x1="2.97" y1="85.77" x2="218.15" y2="85.77" gradientUnits="userSpaceOnUse"><stop offset="0.01" stop-color="#0cdac2"/><stop offset="1" stop-color="#9cc7e7"/></linearGradient><pattern id="Unnamed_Pattern" data-name="Unnamed Pattern" width="176.53" height="176.53" patternTransform="translate(-30.75 -148.35) rotate(-45) scale(0.07)" patternUnits="userSpaceOnUse" viewBox="0 0 176.53 176.53"><rect class="cls-1" width="176.53" height="176.53"/><line class="cls-2" x1="-56.2" x2="198.82"/><line class="cls-2" x1="-56.2" y1="35.31" x2="198.82" y2="35.31"/><line class="cls-2" x1="-56.2" y1="70.61" x2="198.82" y2="70.61"/><line class="cls-2" x1="-56.2" y1="105.92" x2="198.82" y2="105.92"/><line class="cls-2" x1="-56.2" y1="141.23" x2="198.82" y2="141.23"/><line class="cls-2" x1="-56.2" y1="176.53" x2="198.82" y2="176.53"/></pattern><linearGradient id="linear-gradient-2" x1="-977.05" y1="122.51" x2="-918.61" y2="76.63" gradientTransform="matrix(-0.99, 0.13, 0.13, 0.99, -753.96, 48.44)" gradientUnits="userSpaceOnUse"><stop offset="0" stop-color="#fff"/><stop offset="1" stop-color="#0cdac2"/></linearGradient><linearGradient id="linear-gradient-3" x1="-925.32" y1="263.66" x2="-866.88" y2="217.78" gradientTransform="matrix(-0.99, 0.13, 0.13, 0.99, -753.96, 48.44)" gradientUnits="userSpaceOnUse"><stop offset="0" stop-color="#8ec7cd"/><stop offset="1" stop-color="#0cdac2"/></linearGradient></defs><g id="Layer_2" data-name="Layer 2"><g id="OBJECTS"><path class="cls-3" d="M210.13,112.65A96.16,96.16,0,0,1,198,129.08a109.86,109.86,0,0,1-34.7,25.25c-23.62,11-51.58,14.79-77.22,10A102.6,102.6,0,0,1,69,159.59c-19.49-7.28-36.93-20.47-48.1-38C8.72,102.5-4,72.69,7.43,50.6a39.3,39.3,0,0,1,3.19-5.1c14-18.9,42-6.2,60.52-5.33,5.44.26,9.27-.86,12.31-3,3.65-2.59,6.18-6.69,9-11.73L92.7,25C98.05,15.72,107,8.32,117.55,6,131.62,3,147.87,8.42,155.88,20.67c3.26,5,5.11,10.74,7.64,16.14,9.72,20.71,35.34,17.92,48.85,34.24C222.69,83.52,217.44,100.13,210.13,112.65Z"/><g class="cls-4"><path class="cls-5" d="M202.05,122.75q-1.89,3.25-4.05,6.33a109.86,109.86,0,0,1-34.7,25.25c-23.62,11-51.58,14.79-77.22,10A102.6,102.6,0,0,1,69,159.59c-19.49-7.28-36.93-20.47-48.1-38C8.72,102.5-4,72.69,7.43,50.6c15-11.34,39.08-1.11,55.63-.33,11.28.52,15.61-4.82,20.39-13.12.3-.53.61-1.07.92-1.63A42.4,42.4,0,0,1,92.7,25a36.3,36.3,0,0,1,16.77-8.9c14.06-3.07,30.32,2.4,38.33,14.65,3.26,5,5.1,10.75,7.64,16.14,9.72,20.72,35.34,17.93,48.85,34.25C214.61,93.61,209.36,110.22,202.05,122.75Z"/></g><path class="cls-6" d="M114.18,7.24h0a32.92,32.92,0,0,1,22.6,8.37,63.67,63.67,0,0,1,7.54,9c1.16,1.55,2.35,3.16,3.59,4.69,8.47,10.43,20.09,12.17,31.34,13.86,9,1.35,17.48,2.63,24.71,8,7,5.16,13.87,16.1,7.17,39-5.63,19.23-18,37.29-34.85,50.86-20.17,16.25-46.26,26.43-71.56,27.93-1.94.11-3.92.17-5.88.17a102.17,102.17,0,0,1-11.58-.66c-21.07-2.43-40.54-11.25-54.83-24.86C21.87,133.43,13.2,122.11,8,111.62,1.14,97.73,0,85.1,4.6,74.08,10.89,59,28,58,44.62,57a122.08,122.08,0,0,0,16.15-1.62c12.64-2.51,15.56-9.85,18.57-20.77C82.28,24,89.11,15.32,98.08,10.91a36.63,36.63,0,0,1,16.1-3.67m0-1.84A38.41,38.41,0,0,0,97.27,9.26c-9.88,4.86-16.81,14.4-19.7,24.9-2.82,10.2-5.37,17.12-17.16,19.46C42.22,57.24,12,51.64,2.9,73.37-7.85,99.14,13.48,128,31.16,144.81c15.09,14.36,35.21,23,55.89,25.35a103.43,103.43,0,0,0,11.79.68q3,0,6-.18c26.06-1.54,52.3-12,72.6-28.33C194,129,206.92,110.94,212.9,90.56c4.08-13.93,5.17-31.33-7.85-40.95C188,37,163.78,45.89,149.34,28.1c-3.76-4.63-6.93-9.78-11.3-13.83-6.43-6-15.14-8.87-23.86-8.87Z"/><path class="cls-7" d="M171.48,21.28a20.36,20.36,0,0,0,10.3,14.87c10,5.67,26,3.42,30.71-8.3,5.43-13.43-8.88-26.32-21.24-27.74C179.34-1.25,170,9.77,171.48,21.28Z"/><path class="cls-8" d="M126.64,160.9a20.36,20.36,0,0,0,10.3,14.87c10,5.67,26,3.41,30.71-8.3,5.42-13.43-8.88-26.32-21.25-27.74C134.5,138.37,125.13,149.39,126.64,160.9Z"/><path class="cls-9" d="M53.13,25.78c.6,5.12,6.66,8,11.37,6.56,8.31-2.62,8.43-15.34-1.11-15.89C58.18,16.15,52.47,20.11,53.13,25.78Z"/><path class="cls-10" d="M53,25.7c.61,5.19,6.76,8.15,11.54,6.65C73,29.7,73.08,16.79,63.41,16.24,58.13,15.93,52.33,20,53,25.7Z"/></g></g></svg>