<svg xmlns="http://www.w3.org/2000/svg" xmlns:xlink="http://www.w3.org/1999/xlink" viewBox="0 0 1920 1080"><defs><style>.cls-1{fill:url(#linear-gradient);}</style><linearGradient id="linear-gradient" x1="1639.31" y1="1105.08" x2="338.43" y2="-195.79" gradientUnits="userSpaceOnUse"><stop offset="0" stop-color="#7289da"/><stop offset="0.17" stop-color="#6990d8"/><stop offset="0.45" stop-color="#4fa5d2"/><stop offset="0.8" stop-color="#26c5c8"/><stop offset="0.99" stop-color="#0cdac2"/></linearGradient></defs><g id="Layer_2" data-name="Layer 2"><g id="Layer_1-2" data-name="Layer 1"><path class="cls-1" d="M40,142.43a1.91,1.91,0,0,1-.08-2.68L62,116.06l-.92-.88a1.93,1.93,0,0,1-.07-2.69l1.54-1.65a1.86,1.86,0,0,1,2.65-.08l.92.89L94.55,81.16a20.54,20.54,0,0,0,7.79,2.46,21.28,21.28,0,0,0,2.86,7.74L76.76,121.85l.92.88a1.91,1.91,0,0,1,.08,2.68l-1.55,1.66a1.85,1.85,0,0,1-2.64.07l-.92-.88-4.09,4.38L78.3,140a1.91,1.91,0,0,1,.07,2.68L77,144.12a1.86,1.86,0,0,1-2.65.08l-3-2.91-4,4.27,3,2.9a1.91,1.91,0,0,1,.08,2.68l-1.37,1.47a1.85,1.85,0,0,1-2.65.08l-9.74-9.33L50.55,150a1.86,1.86,0,0,1-2.65.08Zm52.64-67a17.69,17.69,0,0,1-.69-24.74,17.14,17.14,0,0,1,21.23-3.11A17.72,17.72,0,0,1,116,43.47a17.14,17.14,0,0,1,24.42-.7,17.6,17.6,0,0,1-3.23,27.89,17.73,17.73,0,0,1-1.87,21.65,17.2,17.2,0,0,1-27.69-3.58,17.71,17.71,0,0,1-2.13-8.52,17.09,17.09,0,0,1-12.91-4.74Zm28.24-18.3q.18.57.33,1.14a8,8,0,0,0,2,3,7.92,7.92,0,0,0,3.08,1.82q.57.11,1.14.27a7.82,7.82,0,0,0,7-2.41A8.09,8.09,0,0,0,134,49.67a7.85,7.85,0,0,0-11.18.32A8,8,0,0,0,120.85,57.17Zm-3.5,28.94a7.85,7.85,0,0,0,11.18-.32,8.1,8.1,0,0,0-.32-11.33,7.76,7.76,0,0,0-3.07-1.82c-.39-.08-.77-.17-1.15-.27a7.83,7.83,0,0,0-7,2.41A8.1,8.1,0,0,0,117.35,86.11ZM99,68.58a7.86,7.86,0,0,0,11.19-.32,8.1,8.1,0,0,0,2-7.18c-.13-.38-.24-.76-.34-1.14a8,8,0,0,0-2-3,7.84,7.84,0,0,0-11.18.32A8.09,8.09,0,0,0,99,68.58Zm386.15,419-39.14,13.67-.41-1.21a1.87,1.87,0,0,0-2.38-1.18l-2.13.75A1.91,1.91,0,0,0,440,502l.42,1.21L410,513.82a1.93,1.93,0,0,0-1.16,2.42l3.56,10.45a1.87,1.87,0,0,0,2.38,1.17l8.46-3,4.37,12.83a1.87,1.87,0,0,0,2.38,1.18l1.89-.66a1.91,1.91,0,0,0,1.16-2.42l-1.36-4,5.47-1.92,1.36,4a1.87,1.87,0,0,0,2.38,1.18l1.89-.66a1.91,1.91,0,0,0,1.16-2.42l-4.37-12.83,5.63-2,.41,1.22a1.87,1.87,0,0,0,2.38,1.17l2.13-.74a1.9,1.9,0,0,0,1.16-2.41l-.42-1.22L490,501.57a21.33,21.33,0,0,1,1-8.2A21.1,21.1,0,0,1,485.19,487.54ZM543.41,475a17.58,17.58,0,0,1-10.7,22.26,17.26,17.26,0,0,1-4.91.94,17.54,17.54,0,0,1-11.55,18.31,17.25,17.25,0,0,1-22-10.84,17.74,17.74,0,0,1,1.07-13.87,17.39,17.39,0,0,1-9.28-10.26,17.58,17.58,0,0,1,10.7-22.25,17.19,17.19,0,0,1,20.24,7.2,17.14,17.14,0,0,1,26.4,8.51ZM505,483.45a8,8,0,0,0,5-5.43c.06-.39.14-.78.22-1.17a7.94,7.94,0,0,0-10.42-8.55,8,8,0,0,0-4.89,10.19A7.88,7.88,0,0,0,505,483.45Zm13.11,13.94a8,8,0,0,0-1.89-3.06c-.31-.24-.6-.5-.89-.77a7.82,7.82,0,0,0-7.27-1.14,8.05,8.05,0,0,0-4.9,10.19,7.9,7.9,0,0,0,10.06,5A8,8,0,0,0,518.09,497.39Zm16.47-19.25a7.88,7.88,0,0,0-15.1.47c-.06.39-.14.78-.22,1.16a7.9,7.9,0,0,0,.36,3.59,8,8,0,0,0,1.9,3.06c.3.25.6.5.89.77a7.82,7.82,0,0,0,7.27,1.14A8.06,8.06,0,0,0,534.56,478.14ZM176.81,496l-4.17.23-.32-5.86,4.17-.23a1.9,1.9,0,0,0,1.77-2l-.11-2a1.88,1.88,0,0,0-2-1.79l-13.37.74-.33-6,1.26-.08a1.88,1.88,0,0,0,1.77-2l-.12-2.28a1.88,1.88,0,0,0-2-1.79l-1.27.07-2.27-41.88a20.63,20.63,0,0,1-7.51-3.22,20.74,20.74,0,0,1-7.12,4l2.27,41.88-1.27.07a1.9,1.9,0,0,0-1.77,2l.13,2.28a1.88,1.88,0,0,0,2,1.79l1.27-.07,1.76,32.55a1.87,1.87,0,0,0,2,1.79l10.89-.61a1.88,1.88,0,0,0,1.77-2l-.49-9.05,13.38-.74a1.89,1.89,0,0,0,1.77-2l-.11-2A1.88,1.88,0,0,0,176.81,496Zm4.47-86.4A17.44,17.44,0,0,1,165,428.06a16.93,16.93,0,0,1-5.3-.55,17.13,17.13,0,0,1-7.57-4.29,17.31,17.31,0,0,1-7.07,5.11,17,17,0,0,1-5.21,1.12A17.52,17.52,0,0,1,134,395.19a17.69,17.69,0,0,1-1-5,17.28,17.28,0,1,1,34,3.13A17.45,17.45,0,0,1,181.28,409.62Zm-34.5,1.92a8,8,0,0,0-3.78-6.4c-.35-.17-.7-.35-1-.54a7.81,7.81,0,0,0-3.51-.63,8,8,0,1,0,8.33,7.57Zm11.38-22.72a7.91,7.91,0,1,0-12,7.28c.35.17.7.35,1,.54a7.7,7.7,0,0,0,6.93-.39c.32-.22.64-.44,1-.65A8,8,0,0,0,158.16,388.82Zm13.77,21.32a8,8,0,0,0-8.33-7.57,7.8,7.8,0,0,0-3.42,1c-.32.23-.65.44-1,.65a8.07,8.07,0,0,0-3.07,6.78,7.91,7.91,0,1,0,15.8-.88ZM74,850.69a21.49,21.49,0,0,1,1.1-8.2L40.69,819.13l.71-1.07a1.92,1.92,0,0,0-.51-2.63L39,814.16a1.86,1.86,0,0,0-2.6.52l-.71,1.07L9,797.59a1.86,1.86,0,0,0-2.6.52L.32,807.29a1.9,1.9,0,0,0,.51,2.63L8.26,815,.8,826.24a1.92,1.92,0,0,0,.51,2.64L3,830a1.86,1.86,0,0,0,2.6-.52L7.89,826l4.81,3.26-2.33,3.51a1.93,1.93,0,0,0,.52,2.64l1.66,1.13a1.86,1.86,0,0,0,2.6-.52l7.46-11.28,4.94,3.36-.71,1.07a1.92,1.92,0,0,0,.52,2.63l1.86,1.27a1.86,1.86,0,0,0,2.6-.52l.71-1.07,34.38,23.37A20.61,20.61,0,0,1,74,850.69ZM120,882a17.17,17.17,0,0,1-27.68,1.39A17.14,17.14,0,0,1,71,885.1a17.67,17.67,0,0,1-4.72-24.29,17.42,17.42,0,0,1,3.61-4,17.24,17.24,0,0,1,7.94-3.54,17.82,17.82,0,0,1,.23-8.79,17.43,17.43,0,0,1,2.25-4.89,17.15,17.15,0,0,1,24-4.79,17.65,17.65,0,0,1,6.54,20.69,16.94,16.94,0,0,1,4.51,2.19A17.67,17.67,0,0,1,120,882ZM88.51,870.46A8.08,8.08,0,0,0,85,863.9a7.85,7.85,0,0,0-11,2.19,8.1,8.1,0,0,0,2.16,11.13,7.91,7.91,0,0,0,12.23-5.57C88.44,871.25,88.47,870.86,88.51,870.46Zm9-13.65c.35-.18.7-.36,1.06-.52a7.81,7.81,0,0,0,2.6-2.46A8.09,8.09,0,0,0,99,842.71a7.85,7.85,0,0,0-11,2.19A8.09,8.09,0,0,0,90.23,856,7.8,7.8,0,0,0,97.54,856.81Zm12.56,8.78a7.79,7.79,0,0,0-7.32-.79c-.35.18-.7.36-1,.52a7.75,7.75,0,0,0-2.61,2.46,8.11,8.11,0,0,0-1.26,3.37c0,.4,0,.8-.07,1.19a8,8,0,0,0,3.49,6.56,7.86,7.86,0,0,0,11-2.19A8.09,8.09,0,0,0,110.1,865.59ZM420.91,910.3a20.83,20.83,0,0,1-7.79-2.46l-28.43,30.48-.92-.88a1.86,1.86,0,0,0-2.65.07l-1.55,1.66a1.91,1.91,0,0,0,.08,2.68l.92.88-22.1,23.7a1.91,1.91,0,0,0,.07,2.68l7.93,7.59a1.86,1.86,0,0,0,2.65-.07l6.15-6.59,9.73,9.32a1.86,1.86,0,0,0,2.65-.07l1.37-1.47a1.92,1.92,0,0,0-.07-2.69l-3-2.9,4-4.26,3,2.9a1.85,1.85,0,0,0,2.64-.07l1.38-1.48a1.91,1.91,0,0,0-.08-2.68l-9.74-9.32,4.09-4.38.92.88a1.86,1.86,0,0,0,2.65-.08l1.54-1.65a1.93,1.93,0,0,0-.07-2.69l-.92-.88L423.77,918A21.35,21.35,0,0,1,420.91,910.3ZM459,869.45a17.68,17.68,0,0,1,.68,24.74,17.13,17.13,0,0,1-3.92,3.14A17.7,17.7,0,0,1,453.91,919a17.19,17.19,0,0,1-27.68-3.57,17.78,17.78,0,0,1-2.14-8.52,17.09,17.09,0,0,1-12.9-4.74,17.68,17.68,0,0,1-.69-24.75,17.13,17.13,0,0,1,21.22-3.11,17.46,17.46,0,0,1,2.87-4.14A17.14,17.14,0,0,1,459,869.45Zm-28.24,18.3q-.18-.56-.33-1.14a8,8,0,0,0-2-3,7.86,7.86,0,0,0-11.19.32,8.1,8.1,0,0,0,.32,11.33,7.84,7.84,0,0,0,11.18-.32A8.08,8.08,0,0,0,430.78,887.75Zm16,13.38a7.89,7.89,0,0,0-3.08-1.81c-.38-.08-.76-.17-1.14-.28a7.85,7.85,0,0,0-7,2.41,8.09,8.09,0,0,0,.31,11.33,7.84,7.84,0,0,0,11.18-.32A8.09,8.09,0,0,0,446.79,901.13Zm5.79-24.78a7.83,7.83,0,0,0-11.18.32,8.07,8.07,0,0,0-2,7.17c.12.38.24.76.33,1.15a8,8,0,0,0,2,3,7.85,7.85,0,0,0,3.07,1.81c.39.08.77.17,1.15.27a7.84,7.84,0,0,0,7-2.4A8.1,8.1,0,0,0,452.58,876.35Zm257.47,96.8a20.71,20.71,0,0,1-7.79-2.46l-28.44,30.48-.92-.88a1.86,1.86,0,0,0-2.65.08l-1.54,1.65a1.93,1.93,0,0,0,.07,2.69l.93.88-22.1,23.69a1.9,1.9,0,0,0,.07,2.68l7.93,7.59a1.86,1.86,0,0,0,2.65-.07l6.14-6.59,9.74,9.33a1.86,1.86,0,0,0,2.65-.08l1.37-1.47a1.91,1.91,0,0,0-.07-2.68l-3-2.91,4-4.26,3,2.9a1.86,1.86,0,0,0,2.65-.07l1.37-1.47a1.93,1.93,0,0,0-.07-2.69l-9.74-9.32,4.09-4.38.92.88a1.85,1.85,0,0,0,2.65-.08l1.54-1.65a1.91,1.91,0,0,0-.07-2.68l-.93-.89,28.44-30.48A21.35,21.35,0,0,1,710.05,973.15Zm38.1-40.85a17.69,17.69,0,0,1,.69,24.75,17.3,17.3,0,0,1-3.92,3.13,17.73,17.73,0,0,1-1.87,21.65,17.14,17.14,0,0,1-24.43.7,17.49,17.49,0,0,1-3.26-4.27,17.77,17.77,0,0,1-2.13-8.52A17.09,17.09,0,0,1,700.32,965a17.69,17.69,0,0,1-.69-24.74,17.14,17.14,0,0,1,21.23-3.11,17.31,17.31,0,0,1,2.87-4.15A17.14,17.14,0,0,1,748.15,932.3Zm-28.23,18.31c-.13-.38-.24-.76-.34-1.14a7.86,7.86,0,0,0-13.14-2.69,8.08,8.08,0,0,0,.31,11.32,7.85,7.85,0,0,0,11.19-.31A8.1,8.1,0,0,0,719.92,950.61Zm16,13.37a7.85,7.85,0,0,0-3.07-1.81q-.58-.12-1.14-.27a7.86,7.86,0,0,0-7,2.4,8.1,8.1,0,0,0,.32,11.33,7.83,7.83,0,0,0,11.18-.32A8.1,8.1,0,0,0,735.92,964Zm5.8-24.78a7.84,7.84,0,0,0-11.18.32,8,8,0,0,0-2,7.18q.18.56.33,1.14a8,8,0,0,0,2,3,7.89,7.89,0,0,0,3.08,1.81c.38.08.76.17,1.14.28a7.87,7.87,0,0,0,7-2.41A8.09,8.09,0,0,0,741.72,939.2ZM1416,746.38l-8.94-.13.18-13.57a1.89,1.89,0,0,0-1.85-1.92l-2,0a1.89,1.89,0,0,0-1.9,1.87l0,4.23-5.79-.08,0-4.23a1.87,1.87,0,0,0-1.84-1.92l-2,0a1.89,1.89,0,0,0-1.9,1.87l-.18,13.58-6-.09,0-1.28a1.89,1.89,0,0,0-1.85-1.92l-2.25,0a1.89,1.89,0,0,0-1.9,1.87v1.28l-41.4-.57a21.15,21.15,0,0,1-3.68,7.38,21.11,21.11,0,0,1,3.48,7.47l41.4.57,0,1.28a1.9,1.9,0,0,0,1.85,1.93l2.25,0a1.88,1.88,0,0,0,1.89-1.87l0-1.29,32.17.45a1.89,1.89,0,0,0,1.9-1.88l.15-11.05A1.88,1.88,0,0,0,1416,746.38Zm-83.33,13.7a17.3,17.3,0,1,1-33.39,8.89,16.86,16.86,0,0,1-5,.66,17.5,17.5,0,0,1,.47-35,16.74,16.74,0,0,1,4.93.8,17.26,17.26,0,0,1,34,4.48,17.63,17.63,0,0,1-5.64,12.68A17.57,17.57,0,0,1,1332.7,760.08Zm-30.2-7.84a8,8,0,0,0-.76-3.53c-.2-.33-.4-.68-.58-1a7.84,7.84,0,0,0-6.46-3.56,8,8,0,0,0-.21,16,7.84,7.84,0,0,0,6.55-3.38c.19-.35.39-.69.61-1A8.07,8.07,0,0,0,1302.5,752.24Zm21.59,13.06a8,8,0,0,0-7.8-8.13,7.89,7.89,0,0,0-6.56,3.39q-.29.51-.6,1a7.93,7.93,0,1,0,15,3.72Zm.34-25.52a7.91,7.91,0,1,0-15.82-.22,8.18,8.18,0,0,0,.77,3.53c.2.33.39.68.57,1a7.85,7.85,0,0,0,6.46,3.56A8,8,0,0,0,1324.43,739.78Zm234.14-281.13,38.63-15.07a21.41,21.41,0,0,1,.72-8.23,20.85,20.85,0,0,1-6-5.63l-38.64,15.07-.45-1.2a1.88,1.88,0,0,0-2.42-1.09l-2.1.82a1.91,1.91,0,0,0-1.08,2.46l.46,1.19-30,11.72a1.9,1.9,0,0,0-1.07,2.45l3.92,10.32a1.86,1.86,0,0,0,2.42,1.08l8.35-3.25,4.81,12.67a1.87,1.87,0,0,0,2.42,1.09l1.87-.73a1.9,1.9,0,0,0,1.07-2.45l-1.49-3.95,5.4-2.1,1.5,3.94a1.86,1.86,0,0,0,2.42,1.09l1.86-.73a1.9,1.9,0,0,0,1.08-2.45L1547.42,463l5.56-2.17.45,1.2a1.86,1.86,0,0,0,2.42,1.09l2.1-.82a1.89,1.89,0,0,0,1.07-2.45Zm34-34.91a17.6,17.6,0,0,1,9.92-22.62,17.18,17.18,0,0,1,20.47,6.47,17.18,17.18,0,0,1,26.69,7.56,17.61,17.61,0,0,1-9.92,22.63,16.92,16.92,0,0,1-4.87,1.11A17.58,17.58,0,0,1,1624,457.61a17.23,17.23,0,0,1-22.33-10.05,17.71,17.71,0,0,1,.58-13.9,17.37,17.37,0,0,1-9.63-9.92Zm33.57.58a8.11,8.11,0,0,0,2,3c.32.23.62.48.92.74a7.81,7.81,0,0,0,7.31.87,8.06,8.06,0,0,0,4.54-10.36,7.91,7.91,0,0,0-10.23-4.6,8,8,0,0,0-4.84,5.61c-.05.4-.11.79-.19,1.18A8,8,0,0,0,1626.18,424.32Zm-11.24,9.47a8.06,8.06,0,0,0-4.54,10.36,7.89,7.89,0,0,0,10.22,4.6,8,8,0,0,0,4.54-10.36,7.76,7.76,0,0,0-2-3c-.31-.24-.62-.49-.91-.75A7.84,7.84,0,0,0,1614.94,433.79Zm-13.59-13.46a7.9,7.9,0,0,0,10.23,4.61,8,8,0,0,0,4.84-5.61c0-.4.11-.79.18-1.18a8,8,0,0,0-.48-3.57,7.89,7.89,0,0,0-10.23-4.6A8.05,8.05,0,0,0,1601.35,420.33ZM1854.16,27.22l-40.37,9.32-.28-1.25a1.87,1.87,0,0,0-2.24-1.43l-2.19.51a1.89,1.89,0,0,0-1.41,2.27l.28,1.25-31.37,7.25a1.89,1.89,0,0,0-1.41,2.27l2.43,10.78a1.86,1.86,0,0,0,2.24,1.42l8.72-2,3,13.24a1.87,1.87,0,0,0,2.24,1.43l2-.45a1.91,1.91,0,0,0,1.41-2.28l-.93-4.12,5.65-1.3.93,4.12a1.87,1.87,0,0,0,2.24,1.43l2-.45a1.91,1.91,0,0,0,1.41-2.28l-3-13.23,5.8-1.34.28,1.25a1.87,1.87,0,0,0,2.24,1.43l2.19-.51a1.89,1.89,0,0,0,1.41-2.27l-.28-1.25,40.36-9.32a21.49,21.49,0,0,1,1.87-8.05A21.16,21.16,0,0,1,1854.16,27.22Zm1.51-5.82a17.53,17.53,0,0,1,13-21A17.22,17.22,0,0,1,1888,9.81a17.18,17.18,0,0,1,25.35,11.35,17.53,17.53,0,0,1-13,21,16.89,16.89,0,0,1-5,.4A17.47,17.47,0,0,1,1882,59.45a17.28,17.28,0,0,1-20.68-13.17,17.62,17.62,0,0,1,2.53-13.67,17.47,17.47,0,0,1-8.13-11.21Zm33.14,5.43a8.08,8.08,0,0,0,1.56,3.24c.28.28.55.57.8.87a7.83,7.83,0,0,0,7.11,1.92,8,8,0,0,0,6-9.6,7.88,7.88,0,0,0-15.06-1.18c-.1.39-.22.77-.35,1.14A8,8,0,0,0,1888.81,26.83Zm-5.35,9.66a7.83,7.83,0,0,0-7.11-1.92,8,8,0,0,0-5.95,9.6,7.91,7.91,0,0,0,9.47,6,8,8,0,0,0,6-9.6,8.15,8.15,0,0,0-1.56-3.24C1884,37.08,1883.72,36.79,1883.46,36.49Zm-18.66-17.2a7.87,7.87,0,0,0,15,1.18c.11-.39.22-.76.35-1.14a7.93,7.93,0,1,0-15.4,0Zm43.46,671.53-13.39-.48.21-6,1.26.05a1.87,1.87,0,0,0,1.94-1.83l.08-2.28a1.89,1.89,0,0,0-1.8-2l-1.27,0,1.46-41.92a20.9,20.9,0,0,1-7.19-3.9,20.51,20.51,0,0,1-7.45,3.37l-1.47,41.92-1.26-.05a1.89,1.89,0,0,0-1.94,1.83l-.08,2.28a1.87,1.87,0,0,0,1.8,2l1.27,0-1.14,32.58a1.89,1.89,0,0,0,1.81,2l10.9.39a1.89,1.89,0,0,0,1.94-1.83l.32-9.06,13.39.48a1.87,1.87,0,0,0,1.93-1.82l.08-2a1.9,1.9,0,0,0-1.81-2l-4.17-.15.21-5.86,4.16.15a1.89,1.89,0,0,0,1.94-1.83l.07-2A1.89,1.89,0,0,0,1908.26,690.82Zm11.73-74a17.4,17.4,0,0,1-17.88,16.87,16.81,16.81,0,0,1-5.23-1,17.3,17.3,0,0,1-7.16-5,17.14,17.14,0,0,1-12.78,5.09,17.53,17.53,0,0,1-2.75-34.66,17.82,17.82,0,0,1-.55-5,17.28,17.28,0,1,1,33.63,6.22A17.5,17.5,0,0,1,1920,616.86Zm-34.53-1.24a8.07,8.07,0,0,0-3.2-6.72q-.51-.3-1-.63a7.68,7.68,0,0,0-3.44-.94,8,8,0,1,0,7.63,8.29Zm8.66-14.55c.34-.2.69-.39,1-.56a7.92,7.92,0,1,0-9-.32q.51.3,1,.63a7.78,7.78,0,0,0,6.93.25Zm16.51,15.45a8,8,0,0,0-7.63-8.29,7.61,7.61,0,0,0-3.49.7c-.34.19-.68.38-1,.56a8,8,0,1,0,12.16,7Zm-280.32,418.59a21.41,21.41,0,0,1,2.66-7.82l-29.25-29.69.9-.91a1.9,1.9,0,0,0,0-2.68L1603,992.4a1.86,1.86,0,0,0-2.65,0l-.9.9-22.73-23.07a1.84,1.84,0,0,0-2.64,0l-7.73,7.8a1.93,1.93,0,0,0,0,2.69l6.32,6.41-9.49,9.59a1.93,1.93,0,0,0,0,2.69l1.41,1.43a1.86,1.86,0,0,0,2.65,0l3-3,4.08,4.15-3,3a1.91,1.91,0,0,0,0,2.68l1.41,1.43a1.85,1.85,0,0,0,2.65,0l9.48-9.59,4.21,4.26-.9.91a1.91,1.91,0,0,0,0,2.68l1.58,1.62a1.86,1.86,0,0,0,2.65,0l.9-.91,29.24,29.69A20.65,20.65,0,0,1,1630.31,1035.11Zm39.21,15a17.68,17.68,0,0,1,0,24.75,17.18,17.18,0,0,1-27.41-4.09,17.15,17.15,0,0,1-21.31-2.52,17.69,17.69,0,0,1,0-24.76,17.28,17.28,0,0,1,4.31-3.18,17.09,17.09,0,0,1,8.46-1.91,17.77,17.77,0,0,1,1.91-8.58,17.35,17.35,0,0,1,3.15-4.35,17.13,17.13,0,0,1,24.43,0,17.72,17.72,0,0,1,2.45,21.59A17.23,17.23,0,0,1,1669.52,1050.14Zm-30.91.11a7.85,7.85,0,0,0-11.19,0,8.1,8.1,0,0,0,0,11.33,7.85,7.85,0,0,0,11.19,0,8.08,8.08,0,0,0,1.88-3.07c.09-.38.19-.77.3-1.15A8.05,8.05,0,0,0,1638.61,1050.25Zm6.63-6.7a7.83,7.83,0,0,0,7,2.21l1.14-.3a7.87,7.87,0,0,0,3-1.9,8.1,8.1,0,0,0,0-11.33,7.85,7.85,0,0,0-11.19,0A8.1,8.1,0,0,0,1645.24,1043.55Zm17.65,13.29a7.82,7.82,0,0,0-7-2.21l-1.14.3a7.88,7.88,0,0,0-4.9,5c-.09.39-.19.77-.31,1.15a8.12,8.12,0,0,0,2.17,7.13,7.86,7.86,0,0,0,11.19,0A8.1,8.1,0,0,0,1662.89,1056.84ZM892.8,289.73a1.91,1.91,0,0,0,.86,2.54l2,1a1.86,1.86,0,0,0,2.5-.88l.56-1.15L936,309.62a20.78,20.78,0,0,1,6.44-5.08,21.51,21.51,0,0,1,0-8.27l-37.21-18.38.56-1.15a1.92,1.92,0,0,0-.87-2.54l-2-1a1.86,1.86,0,0,0-2.5.87l-.56,1.16-28.92-14.29a1.86,1.86,0,0,0-2.5.88l-4.78,9.93a1.9,1.9,0,0,0,.86,2.54l8,4-5.87,12.21a1.91,1.91,0,0,0,.86,2.54l1.8.88a1.87,1.87,0,0,0,2.51-.87l1.82-3.8,5.21,2.57-1.83,3.8a1.91,1.91,0,0,0,.86,2.54l1.8.88a1.86,1.86,0,0,0,2.5-.87l5.87-12.2,5.35,2.64Zm99.45,39.43A17.14,17.14,0,0,1,965,334.37,17.16,17.16,0,0,1,944.07,339a17.65,17.65,0,0,1-4.91-27.84,17.32,17.32,0,0,1,7.39-4.61,17.71,17.71,0,0,1-1-8.73,17.9,17.9,0,0,1,1.57-5.17,17.2,17.2,0,0,1,23.1-8.06,17.6,17.6,0,0,1,9.28,19.59,17.19,17.19,0,0,1,4.76,1.54A17.63,17.63,0,0,1,992.25,329.16Zm-32.71-5.86c0-.4-.06-.79-.08-1.19a8,8,0,0,0-4.35-6,7.88,7.88,0,0,0-10.58,3.69,8.08,8.08,0,0,0,3.65,10.72,7.93,7.93,0,0,0,11.36-7.21Zm10.25-19.42a8.08,8.08,0,0,0-3.64-10.72,7.87,7.87,0,0,0-10.58,3.69,8.08,8.08,0,0,0,3.64,10.72,7.82,7.82,0,0,0,7.36-.23c.32-.24.64-.46,1-.67A7.84,7.84,0,0,0,969.79,303.88Zm10.4,10.41a7.82,7.82,0,0,0-7.36.23c-.31.23-.64.45-1,.66a8.08,8.08,0,0,0-2.25,2.8,8.2,8.2,0,0,0-.79,3.52c0,.39.07.79.08,1.19a8,8,0,0,0,4.35,6A7.88,7.88,0,0,0,983.83,325,8.08,8.08,0,0,0,980.19,314.29Zm-316.9-59.92,8.46-7a1.92,1.92,0,0,0,.27-2.67l-5.65-7,10.39-8.57a1.91,1.91,0,0,0,.26-2.67l-1.26-1.57a1.85,1.85,0,0,0-2.63-.27l-3.24,2.67-3.65-4.55,3.23-2.67a1.92,1.92,0,0,0,.27-2.67l-1.26-1.57a1.86,1.86,0,0,0-2.64-.27l-10.39,8.57-3.75-4.67,1-.81A1.92,1.92,0,0,0,653,216l-1.42-1.77a1.87,1.87,0,0,0-2.64-.27l-1,.81-26.15-32.51a20.8,20.8,0,0,1-8,1.87,21.51,21.51,0,0,1-3.41,7.51l26.15,32.51-1,.81a1.9,1.9,0,0,0-.27,2.67l1.42,1.77a1.85,1.85,0,0,0,2.63.27l1-.81,20.33,25.27A1.85,1.85,0,0,0,663.29,254.37Zm-52.4-73.91a17.76,17.76,0,0,1-2.75,8.34,17.55,17.55,0,0,1-3.56,4,17.15,17.15,0,0,1-24.31-2.51,17.72,17.72,0,0,1-.29-21.73,17.25,17.25,0,0,1-3.69-3.42,17.68,17.68,0,0,1,2.48-24.63,17.13,17.13,0,0,1,24.3,2.51,17.54,17.54,0,0,1,2.57,4.35,17.15,17.15,0,0,1,20.94,4.68,17.68,17.68,0,0,1-2.48,24.63,17.08,17.08,0,0,1-13.21,3.76Zm-20.57-18.38c.38-.08.77-.14,1.16-.19a7.69,7.69,0,0,0,3.2-1.58,7.86,7.86,0,0,0,2.17-2.85c.13-.38.27-.75.42-1.12a8.06,8.06,0,0,0-1.46-7.3,7.83,7.83,0,0,0-11.12-1.15,8.09,8.09,0,0,0-1.14,11.27A7.85,7.85,0,0,0,590.32,162.08Zm9.48,12.11a7.85,7.85,0,0,0-6.77-2.92c-.39.07-.77.13-1.16.18a7.77,7.77,0,0,0-3.2,1.59,8.1,8.1,0,0,0-1.14,11.27,7.85,7.85,0,0,0,11.13,1.15A8.1,8.1,0,0,0,599.8,174.19Zm18.39-4.85a8.09,8.09,0,0,0,1.13-11.27,7.85,7.85,0,0,0-13.3,1.7q-.19.57-.42,1.11a8.08,8.08,0,0,0,1.46,7.31A7.85,7.85,0,0,0,618.19,169.34ZM953.67,734.21a1.87,1.87,0,0,0-2.11-1.62l-4.13.56-.78-5.81,4.14-.57a1.89,1.89,0,0,0,1.6-2.13l-.26-2A1.89,1.89,0,0,0,950,721l-13.28,1.82-.79-6,1.25-.17a1.89,1.89,0,0,0,1.61-2.13l-.3-2.26a1.88,1.88,0,0,0-2.11-1.63l-1.26.18-5.53-41.57a20.83,20.83,0,0,1-7.74-2.61,20.81,20.81,0,0,1-6.78,4.59l5.53,41.57-1.26.17a1.89,1.89,0,0,0-1.6,2.13l.3,2.26a1.88,1.88,0,0,0,2.1,1.63l1.26-.17,4.3,32.3a1.88,1.88,0,0,0,2.11,1.63l10.81-1.47a1.9,1.9,0,0,0,1.6-2.14l-1.19-9,13.28-1.82a1.89,1.89,0,0,0,1.6-2.13Zm-39.06-66.56a17,17,0,0,1-5.11,1.54,17.33,17.33,0,0,1-19.42-15A17.55,17.55,0,0,1,901,635.5a17.3,17.3,0,1,1,32.8-4.48,17.53,17.53,0,0,1,.63,34.76,16.9,16.9,0,0,1-5.32-.11,17.24,17.24,0,0,1-7.89-3.67A17.33,17.33,0,0,1,914.61,667.65Zm12.23-25.14a8.08,8.08,0,0,0-2.52,7,7.91,7.91,0,1,0,6.78-9,7.82,7.82,0,0,0-3.33,1.29C927.47,642,927.16,642.27,926.84,642.51ZM915,650.77a8,8,0,0,0-4.27-6.07c-.37-.14-.73-.29-1.09-.45a7.63,7.63,0,0,0-3.54-.35,8,8,0,1,0,8.9,6.87Zm2.79-14.53a7.78,7.78,0,0,0,3.32-1.29c.31-.25.61-.5.93-.73a8.06,8.06,0,0,0,2.53-7,7.91,7.91,0,1,0-15.68,2.14,8,8,0,0,0,4.27,6.08c.36.13.73.29,1.08.45A8,8,0,0,0,917.83,636.24Zm405-483.89a20.61,20.61,0,0,1,8.09-1l13.35-39.71,1.2.42a1.88,1.88,0,0,0,2.38-1.19l.72-2.16a1.89,1.89,0,0,0-1.17-2.4l-1.2-.42L1356.57,75a1.9,1.9,0,0,0-1.17-2.4L1345.07,69a1.87,1.87,0,0,0-2.38,1.19l-2.88,8.58-12.68-4.38a1.87,1.87,0,0,0-2.38,1.18l-.65,1.92a1.91,1.91,0,0,0,1.17,2.41l4,1.36-1.86,5.55-3.95-1.36a1.86,1.86,0,0,0-2.38,1.19l-.64,1.91a1.9,1.9,0,0,0,1.16,2.41l12.69,4.38-1.92,5.7-1.2-.41a1.87,1.87,0,0,0-2.38,1.18L1328,104a1.91,1.91,0,0,0,1.17,2.41l1.2.41L1317,146.52A21.11,21.11,0,0,1,1322.82,152.35Zm-33.57,6a17.18,17.18,0,0,1,26.64-8.42,17.61,17.61,0,0,1,5.44,6.85,17.17,17.17,0,0,1,8.43-2.06,16.93,16.93,0,0,1,5.25.93,17.59,17.59,0,0,1,10.79,22.22,17.3,17.3,0,0,1-18,11.77,17.75,17.75,0,0,1-.91,5,17.24,17.24,0,0,1-21.92,10.93,17.59,17.59,0,0,1-10.79-22.22,17.8,17.8,0,0,1,2.28-4.5A17.66,17.66,0,0,1,1289.25,158.36ZM1323.1,177c.27.29.52.59.77.9a7.85,7.85,0,0,0,13.06-3.09,8,8,0,0,0-4.94-10.17,7.9,7.9,0,0,0-10,5A8.08,8.08,0,0,0,1323.1,177Zm-10,4.39a7.74,7.74,0,0,0-3.55-.35c-.38.09-.76.16-1.15.23a7.94,7.94,0,0,0-5.34,5.12,8,8,0,0,0,4.94,10.17,7.88,7.88,0,0,0,10-5,8.07,8.07,0,0,0-1.14-7.36c-.27-.29-.53-.59-.77-.9A8,8,0,0,0,1313.06,181.4Zm-10-9.81a7.72,7.72,0,0,0,3.54.36c.39-.09.77-.17,1.16-.24a7.94,7.94,0,0,0,5.34-5.12,8,8,0,0,0-4.94-10.17,7.9,7.9,0,0,0-10,5A8.05,8.05,0,0,0,1303.05,171.59Z"/></g></g></svg>