<svg xmlns="http://www.w3.org/2000/svg" viewBox="0 0 466.08 329.91"><defs><style>.cls-1{isolation:isolate;}.cls-2{mix-blend-mode:overlay;}.cls-3{fill:#fff;}</style></defs><g class="cls-1"><g id="Layer_2" data-name="Layer 2"><g id="Layer_1-2" data-name="Layer 1"><g class="cls-2"><path class="cls-3" d="M123.84,329.91l-.45-.21c7.71-16.91-3.74-37-19.26-46.64-12.26-7.62-26.78-10.78-40.81-13.82-3.89-.85-7.92-1.72-11.83-2.68-23.41-5.73-38.52-15-46.17-28.32a40.69,40.69,0,0,1,26.2-59.92c14.59-3.34,29.35,1.54,43.63,6.27,4.12,1.36,8.38,2.77,12.55,3.95C107,194,130.4,192.23,139.18,176c2.59-4.8,3.73-10.58,4.83-16.16,1.79-9.08,3.48-17.66,10.94-22.25,11.66-7.19,26.07,2.71,35.89,10.77,5.34,4.38,23.66,17.89,35.37,7.86,4.72-4.05,6.19-10.44,7.62-16.62,1.36-5.89,2.77-12,6.93-16.24,6-6.15,15.74-6.24,22.73-3.61,7.64,2.87,13.73,8.6,19.31,14.23l2.37,2.39c9.45,9.59,19.23,19.51,32.05,23.12a30.16,30.16,0,0,0,24.6-4.21c3.54-2.5,7.85-6.93,8.32-13.86.78-11.53-9.32-20.64-17-26.49l-3.71-2.79c-8-6-16.19-12.12-21.38-20.67-5.89-9.73-6.62-24.31,2.37-31.89,8.11-6.83,20.27-4.94,28.21-1.23,5.25,2.44,10.06,5.85,14.71,9.13,3.28,2.32,6.68,4.72,10.2,6.77,22.73,13.2,53.37,11.52,74.53-4.09S469.87,25.73,464,.11l.49-.11c5.95,25.8-4.77,54.8-26.08,70.53s-52.18,17.41-75.08,4.11c-3.54-2-6.94-4.46-10.23-6.79-4.63-3.27-9.42-6.66-14.63-9.09-7.81-3.64-19.75-5.52-27.68,1.17-8.78,7.4-8,21.69-2.26,31.24,5.13,8.47,13.32,14.6,21.25,20.53l3.71,2.79c7.76,5.92,18,15.15,17.19,26.92-.37,5.56-3.41,10.62-8.53,14.24a30.63,30.63,0,0,1-25,4.28c-12.94-3.65-22.77-13.61-32.27-23.25l-2.36-2.39c-5.55-5.59-11.59-11.28-19.13-14.11-6.84-2.58-16.36-2.5-22.2,3.49-4.07,4.16-5.46,10.18-6.8,16-1.45,6.26-2.94,12.74-7.78,16.89-12,10.29-30.6-3.41-36-7.85-9.7-8-23.92-17.75-35.31-10.74-7.27,4.48-8.94,13-10.71,21.93-1.11,5.62-2.25,11.43-4.88,16.29-8.92,16.52-32.57,18.35-52.06,12.83-4.18-1.18-8.44-2.59-12.57-4-14.21-4.7-28.9-9.56-43.36-6.25A40.18,40.18,0,0,0,5.75,238c7.58,13.21,22.58,22.39,45.86,28.08,3.91,1,7.93,1.83,11.82,2.68,14.07,3.05,28.63,6.22,41,13.88C120.1,292.39,131.67,312.74,123.84,329.91Z"/></g></g></g></g></svg>