<svg xmlns="http://www.w3.org/2000/svg" viewBox="0 0 287.43 292.97"><defs><style>.cls-1,.cls-4{opacity:0.4;}.cls-2,.cls-4{fill:#42525b;}.cls-3{fill:#fff;}.cls-5{fill:#4c70d3;}.cls-6{fill:#d4ecff;}.cls-7{fill:#7289da;}</style></defs><g id="Layer_2" data-name="Layer 2"><g id="_ÎÓÈ_1" data-name="—ÎÓÈ_1"><g class="cls-1"><path class="cls-2" d="M51.11,239.48c-10.56-6.09-27.68-6.09-38.24,0s-10.56,16,0,22.08,27.68,6.1,38.24,0S61.67,245.58,51.11,239.48ZM31.34,250.73a10.87,10.87,0,0,1-9.84,0c-2.71-1.57-2.71-4.11,0-5.68a10.93,10.93,0,0,1,9.84,0C34.05,246.62,34.05,249.16,31.34,250.73Z"/><path class="cls-2" d="M56.82,256.66a25.06,25.06,0,0,1-5.23,3.93,37.2,37.2,0,0,1-6.81,3l5.17,3,7.79.4,3.86,2.22-1.58.91,2.92,1.69L66.09,270l5.09,2.94-5.12,3,3.77,2.17,3.65,2.11L78,277.55l6.74,3.9-2.58,1.48,4.33,2.5L89.1,284l2,1.17-2,4.07L95.63,293h24.08Z"/></g><path class="cls-3" d="M54.08,232.9v-7.31l-2.15,1.21a18.62,18.62,0,0,0-5.77-4.93c-10.56-6.1-27.68-6.1-38.24,0a17.7,17.7,0,0,0-6.35,5.78L0,225.59v7.31c0,4,2.63,8,7.92,11C18.48,250,35.6,250,46.16,244,51.45,240.9,54.08,236.9,54.08,232.9Zm-27.79-4.77a10.85,10.85,0,0,1-9.83,0c-2.72-1.57-2.72-4.11,0-5.68a10.91,10.91,0,0,1,9.83,0C29,224,29,226.56,26.29,228.13Z"/><path class="cls-3" d="M24.78,238.66l-11.67-5.75L2.74,226.06a14.07,14.07,0,0,0-1.17,1.59L0,225.59v7.31c0,4,2.63,8,7.92,11a37.9,37.9,0,0,0,16.86,4.51Z"/><path class="cls-3" d="M46.16,214.55c-10.56-6.1-27.68-6.1-38.24,0s-10.56,16,0,22.07,27.68,6.1,38.24,0S56.72,220.64,46.16,214.55ZM26.38,225.79a10.85,10.85,0,0,1-9.83,0c-2.72-1.56-2.72-4.11,0-5.67a10.85,10.85,0,0,1,9.83,0C29.1,221.68,29.1,224.23,26.38,225.79Z"/><path class="cls-3" d="M31.69,218.41H17a37.35,37.35,0,0,0-3.9,1.12V232H31.69Zm-5.4,9.72a10.85,10.85,0,0,1-9.83,0c-2.72-1.57-2.72-4.11,0-5.68a10.91,10.91,0,0,1,9.83,0C29,224,29,226.56,26.29,228.13Z"/><path class="cls-3" d="M43.89,215.86c-9.31-5.38-24.4-5.38-33.7,0s-9.31,14.08,0,19.46,24.4,5.37,33.7,0S53.2,221.23,43.89,215.86Zm-17.51,9.93a10.85,10.85,0,0,1-9.83,0c-2.72-1.56-2.72-4.11,0-5.67a10.85,10.85,0,0,1,9.83,0C29.1,221.68,29.1,224.23,26.38,225.79Z"/><path class="cls-3" d="M10.19,217.87c9.3-5.37,24.39-5.37,33.7,0,4.21,2.43,6.51,5.55,6.91,8.73.49-3.85-1.81-7.8-6.91-10.74-9.31-5.38-24.4-5.38-33.7,0-5.1,2.94-7.4,6.88-6.91,10.73C3.68,223.42,6,220.3,10.19,217.87Z"/><path class="cls-3" d="M51.87,239a25.75,25.75,0,0,1-5.24,3.92,37.1,37.1,0,0,1-6.8,3l5.17,3,7.79.4,3.85,2.22-1.57.91L58,254.15l3.14-1.82,5.1,2.94-5.12,3,3.76,2.17,3.65,2.11,4.55-2.63,6.74,3.9-2.57,1.48,4.33,2.5,2.57-1.48,2,1.17-2,4.07,6.55,3.78h24.07Z"/><path class="cls-3" d="M51.87,233.71a25.41,25.41,0,0,1-5.24,3.93,37.1,37.1,0,0,1-6.8,3l5.17,3,7.79.4,3.85,2.22-1.57.91L58,248.86l3.14-1.81,5.1,2.94-5.12,3,3.76,2.17,3.65,2.11,4.55-2.63,6.74,3.89L77.24,260l4.33,2.5L84.14,261l2,1.18-2,4.07L90.68,270h24.07Z"/><rect class="cls-3" x="90.68" y="270.02" width="24.07" height="5.28"/><polygon class="cls-3" points="81.57 267.76 81.57 262.48 84.14 260.99 84.14 266.28 81.57 267.76"/><polygon class="cls-3" points="77.24 259.98 77.24 265.26 81.57 267.76 81.57 262.48 77.24 259.98"/><polygon class="cls-3" points="73.07 254.6 73.07 259.88 68.52 262.51 68.52 257.23 73.07 254.6"/><polygon class="cls-3" points="61.11 252.95 61.11 258.23 68.52 262.51 68.52 257.23 61.11 252.95"/><polygon class="cls-3" points="84.14 266.28 84.13 271.52 90.68 275.3 90.68 270.02 84.14 266.28"/><polygon class="cls-3" points="57.99 248.86 57.99 254.15 55.07 252.46 55.07 247.18 57.99 248.86"/><polygon class="cls-3" points="45 243.65 45 248.93 52.79 249.33 52.79 244.05 45 243.65"/><polygon class="cls-3" points="98.32 266.28 52.28 239.67 54.84 238.19 103.41 266.26 98.32 266.28"/><polygon class="cls-3" points="54.84 239.47 101.21 266.27 103.41 266.26 54.84 238.19 52.28 239.67 53.39 240.31 54.84 239.47"/><polygon class="cls-3" points="45 248.93 45 243.65 39.83 240.66 39.83 245.94 45 248.93"/><polygon class="cls-3" points="61.13 247.05 61.13 252.33 57.99 254.15 57.99 248.86 61.13 247.05"/><path class="cls-3" d="M43.89,215.86c-5.23-3-12.28-4.35-19.11-4v2c6.83-.38,13.88.94,19.11,4,4.21,2.43,6.51,5.55,6.91,8.73C51.29,222.75,49,218.8,43.89,215.86Z"/><path class="cls-4" d="M147,273.09,67,226.92c-2.38-1.38-2.08-3.77.67-5.36l128.93-74.75c2.74-1.58,6.89-1.75,9.27-.38l80,46.17c2.38,1.37,2.08,3.77-.67,5.35L156.23,272.7C153.49,274.29,149.34,274.46,147,273.09Z"/><path class="cls-5" d="M188.78,43.67,118.7,1.57a9.4,9.4,0,0,0-9-.78h0L103.09,3.2h5.08A19.46,19.46,0,0,0,105.93,9L68.87,179c-2.1,9.63,1.83,20.82,8.77,25l70.09,42.1a11.54,11.54,0,0,0,2.24,1l-2.77,4.22,5.87-2h0c3.45-1.55,6.25-5.3,7.42-10.67l37.06-170C199.65,59,195.73,47.84,188.78,43.67Z"/><path class="cls-6" d="M137.91,250.73l-70.09-42.1c-6.94-4.17-10.87-15.36-8.77-25l37.06-170C98.21,4,105.54-.4,112.48,3.77l70.09,42.11c6.94,4.17,10.86,15.35,8.77,25l-37.06,170C152.18,250.47,144.85,254.9,137.91,250.73Z"/><path class="cls-3" d="M138,245.89,69.59,204.77c-5.4-3.24-8.45-11.94-6.82-19.42l36.86-169c1.63-7.48,7.33-10.93,12.72-7.68L180.8,49.73c5.39,3.24,8.45,11.94,6.81,19.43l-36.85,169C149.13,245.69,143.43,249.13,138,245.89Z"/><path class="cls-6" d="M112.24,144l-7.81-4.51a2.25,2.25,0,0,1-1-2.32h0a1.09,1.09,0,0,1,1.67-.79l7.81,4.51a2.23,2.23,0,0,1,1,2.31h0A1.09,1.09,0,0,1,112.24,144Z"/><path class="cls-6" d="M130.84,154.69l-11.52-6.64a2.25,2.25,0,0,1-.95-2.32h0a1.09,1.09,0,0,1,1.67-.79l11.52,6.64a2.25,2.25,0,0,1,.95,2.32h0A1.09,1.09,0,0,1,130.84,154.69Z"/><path class="cls-6" d="M98.63,180.4l-7.81-4.51a2.21,2.21,0,0,1-.95-2.31h0a1.09,1.09,0,0,1,1.67-.8l7.81,4.51a2.25,2.25,0,0,1,1,2.32h0A1.09,1.09,0,0,1,98.63,180.4Z"/><path class="cls-6" d="M115.21,190l-11.52-6.65a2.24,2.24,0,0,1-1-2.31h0a1.09,1.09,0,0,1,1.67-.8l11.52,6.65a2.23,2.23,0,0,1,.95,2.31h0A1.09,1.09,0,0,1,115.21,190Z"/><path class="cls-6" d="M89.2,138l-4.87-2.82a2.23,2.23,0,0,1-1-2.31h0a1.09,1.09,0,0,1,1.67-.8l4.88,2.82a2.24,2.24,0,0,1,1,2.31h0A1.09,1.09,0,0,1,89.2,138Z"/><path class="cls-6" d="M104.24,154.1l-14.91-8.6a2.23,2.23,0,0,1-1-2.31h0a1.09,1.09,0,0,1,1.67-.8L105,151a2.25,2.25,0,0,1,1,2.32h0A1.08,1.08,0,0,1,104.24,154.1Z"/><path class="cls-6" d="M91.2,161.35l-4.87-2.82a2.24,2.24,0,0,1-1-2.31h0a1.09,1.09,0,0,1,1.67-.8l4.88,2.82a2.22,2.22,0,0,1,1,2.31h0A1.08,1.08,0,0,1,91.2,161.35Z"/><path class="cls-6" d="M117.72,206.19l-13-7.52a2.22,2.22,0,0,1-1-2.31h0a1.08,1.08,0,0,1,1.67-.8l13,7.52a2.24,2.24,0,0,1,1,2.32h0A1.09,1.09,0,0,1,117.72,206.19Z"/><path class="cls-6" d="M86.45,173.37l-3.13-1.81a2.21,2.21,0,0,1-.95-2.31h0a1.09,1.09,0,0,1,1.67-.8l3.13,1.81a2.23,2.23,0,0,1,1,2.31h0A1.09,1.09,0,0,1,86.45,173.37Z"/><path class="cls-6" d="M84.2,186.84l-3.89-2.24a2.25,2.25,0,0,1-1-2.32h0a1.08,1.08,0,0,1,1.67-.79l3.89,2.24a2.23,2.23,0,0,1,1,2.31h0A1.09,1.09,0,0,1,84.2,186.84Z"/><path class="cls-6" d="M99.32,195.57l-10.25-5.91a2.25,2.25,0,0,1-.95-2.32h0a1.08,1.08,0,0,1,1.67-.79L100,192.46a2.25,2.25,0,0,1,1,2.32h0A1.09,1.09,0,0,1,99.32,195.57Z"/><path class="cls-6" d="M86.18,195.37l-7.37-4.26a2.22,2.22,0,0,1-1-2.31h0a1.09,1.09,0,0,1,1.67-.8l7.37,4.26a2.22,2.22,0,0,1,1,2.31h0A1.09,1.09,0,0,1,86.18,195.37Z"/><path class="cls-6" d="M128.9,212.68,124.16,210a2.25,2.25,0,0,1-1-2.32h0a1.08,1.08,0,0,1,1.67-.79l4.73,2.73a2.24,2.24,0,0,1,1,2.31h0A1.09,1.09,0,0,1,128.9,212.68Z"/><path class="cls-6" d="M109.35,171.82l-13-7.52a2.23,2.23,0,0,1-.95-2.31h0a1.09,1.09,0,0,1,1.67-.8l13,7.52a2.25,2.25,0,0,1,1,2.32h0A1.08,1.08,0,0,1,109.35,171.82Z"/><path class="cls-6" d="M110.54,165.13,87.83,152a2.25,2.25,0,0,1-1-2.32h0a1.08,1.08,0,0,1,1.67-.79L111.25,162a2.22,2.22,0,0,1,1,2.31h0A1.09,1.09,0,0,1,110.54,165.13Z"/><path class="cls-6" d="M97.85,172.57l-13-7.52a2.24,2.24,0,0,1-.95-2.31h0a1.09,1.09,0,0,1,1.67-.8l13,7.52a2.23,2.23,0,0,1,1,2.31h0A1.09,1.09,0,0,1,97.85,172.57Z"/><path class="cls-6" d="M119.23,177.53l-4.73-2.73a2.25,2.25,0,0,1-1-2.32h0a1.09,1.09,0,0,1,1.67-.79l4.74,2.73a2.23,2.23,0,0,1,1,2.31h0A1.09,1.09,0,0,1,119.23,177.53Z"/><path class="cls-6" d="M97.34,135.36l-11.51-6.65a2.24,2.24,0,0,1-1-2.31h0a1.09,1.09,0,0,1,1.67-.8l11.51,6.65a2.21,2.21,0,0,1,1,2.31h0A1.09,1.09,0,0,1,97.34,135.36Z"/><path class="cls-6" d="M84.12,201.57l-13.33-7.7a2.24,2.24,0,0,1-1-2.31h0a1.09,1.09,0,0,1,1.67-.8l13.33,7.7a2.24,2.24,0,0,1,1,2.31h0A1.1,1.1,0,0,1,84.12,201.57Z"/><path class="cls-7" d="M131.2,76.12c-2.11-1.16-4.34.25-5,3.07s.52,6,2.59,7.12,4.3-.28,5-3.06S133.31,77.27,131.2,76.12Zm13.26,7.24c-2-1.12-4.2.27-4.87,3s.44,5.88,2.44,6.93,4.16-.31,4.83-3S146.49,84.46,144.46,83.36Z"/><path class="cls-7" d="M171.39,53l-48.9-30.08c-4.46-2.74-9.16-.41-10.43,5.27L97.43,93.39c-1.19,5.34,1.49,11.37,5.9,13.5l41.52,20L145,118l3.14,7.29,2.92,6.76,5.17,11.34,19.69-77C177.22,61.33,175.2,55.34,171.39,53Zm-15.63,49.72s-4.49,4.8-12.26,1.14c0,0-.8-2.55-1.45-4.79,5,.77,7.66-1.92,7.66-1.92a16,16,0,0,1-4.67.49,19.6,19.6,0,0,1-5.61-.79,26.25,26.25,0,0,1-9.38-4.94,40.49,40.49,0,0,1-5-4.82,30.83,30.83,0,0,1-2.37-3c-.09-.15-.19-.25-.29-.4a2.29,2.29,0,0,1-.11-.23c-.57-.82-.88-1.34-.88-1.34A19,19,0,0,0,126.7,91c-1.52,1.15-3.38,2.5-3.38,2.5a21,21,0,0,1-9.95-13A59.13,59.13,0,0,1,125.25,56,15.45,15.45,0,0,1,137,57.07l.23.77c-7.29-1.42-11.31.54-11.31.54a25.4,25.4,0,0,1,2.56-.11,24.2,24.2,0,0,1,9.17,1.89,3.9,3.9,0,0,1,.64.26,32,32,0,0,1,7.37,4.13,39.93,39.93,0,0,1,9.56,10.39,37.93,37.93,0,0,0-7.34-10.73l.68-.46s4.9,2.68,8.72,10.46C157.25,74.21,159.31,88.6,155.76,102.71Z"/></g></g></svg>